<svg width="400" height="359" viewBox="0 0 400 359" fill="none" xmlns="http://www.w3.org/2000/svg">
  <rect width="400" height="359" fill="#F8FAFC"/>
  
  <!-- Background elements -->
  <circle cx="350" cy="80" r="25" fill="#E2E8F0" opacity="0.4"/>
  <rect x="30" y="300" width="35" height="35" rx="6" fill="#CBD5E1" opacity="0.3"/>
  
  <!-- Financial building/skyscraper -->
  <rect x="60" y="80" width="40" height="120" rx="4" fill="#1E293B"/>
  <rect x="65" y="90" width="6" height="8" rx="1" fill="#F59E0B"/>
  <rect x="75" y="90" width="6" height="8" rx="1" fill="#F59E0B"/>
  <rect x="85" y="90" width="6" height="8" rx="1" fill="#F59E0B"/>
  <rect x="65" y="105" width="6" height="8" rx="1" fill="#F59E0B"/>
  <rect x="75" y="105" width="6" height="8" rx="1" fill="#F59E0B"/>
  <rect x="85" y="105" width="6" height="8" rx="1" fill="#F59E0B"/>
  <rect x="65" y="120" width="6" height="8" rx="1" fill="#F59E0B"/>
  <rect x="75" y="120" width="6" height="8" rx="1" fill="#F59E0B"/>
  <rect x="85" y="120" width="6" height="8" rx="1" fill="#F59E0B"/>
  
  <!-- Trading terminal/computer -->
  <rect x="150" y="140" width="100" height="60" rx="4" fill="#374151"/>
  <rect x="160" y="150" width="80" height="40" rx="2" fill="#000000"/>
  
  <!-- Terminal screen content - trading data -->
  <rect x="165" y="155" width="15" height="3" fill="#10B981"/>
  <rect x="185" y="155" width="12" height="3" fill="#EF4444"/>
  <rect x="202" y="155" width="18" height="3" fill="#3B82F6"/>
  <rect x="165" y="162" width="20" height="3" fill="#F59E0B"/>
  <rect x="190" y="162" width="16" height="3" fill="#8B5CF6"/>
  <rect x="165" y="169" width="25" height="3" fill="#06B6D4"/>
  <rect x="195" y="169" width="14" height="3" fill="#10B981"/>
  <rect x="165" y="176" width="22" height="3" fill="#EF4444"/>
  <rect x="192" y="176" width="18" height="3" fill="#3B82F6"/>
  
  <!-- Person at computer -->
  <circle cx="200" cy="120" r="12" fill="#F3E8FF"/>
  <rect x="190" y="132" width="20" height="25" rx="10" fill="#1E40AF"/>
  <rect x="185" y="140" width="8" height="12" rx="4" fill="#FBBF24"/>
  <rect x="207" y="140" width="8" height="12" rx="4" fill="#FBBF24"/>
  
  <!-- Bank logos/shields -->
  <rect x="290" y="100" width="30" height="25" rx="4" fill="#DC2626"/>
  <text x="295" y="115" font-family="Arial, sans-serif" font-size="8" font-weight="bold" fill="#FFFFFF">GS</text>
  
  <rect x="330" y="100" width="30" height="25" rx="4" fill="#059669"/>
  <text x="335" y="115" font-family="Arial, sans-serif" font-size="8" font-weight="bold" fill="#FFFFFF">ML</text>
  
  <rect x="290" y="135" width="30" height="25" rx="4" fill="#7C3AED"/>
  <text x="295" y="150" font-family="Arial, sans-serif" font-size="8" font-weight="bold" fill="#FFFFFF">CS</text>
  
  <rect x="330" y="135" width="30" height="25" rx="4" fill="#B45309"/>
  <text x="335" y="150" font-family="Arial, sans-serif" font-size="8" font-weight="bold" fill="#FFFFFF">NM</text>
  
  <!-- Risk monitoring charts -->
  <rect x="280" y="180" width="80" height="50" rx="4" fill="#FFFFFF" stroke="#E5E7EB"/>
  
  <!-- Risk chart lines -->
  <path d="M290 210 L300 205 L310 200 L320 195 L330 200 L340 190 L350 185" stroke="#10B981" stroke-width="2" fill="none"/>
  <path d="M290 220 L300 215 L310 218 L320 212 L330 208 L340 205 L350 200" stroke="#EF4444" stroke-width="2" fill="none"/>
  
  <!-- 99.9% uptime indicator -->
  <rect x="50" y="230" width="80" height="25" rx="12" fill="#D1FAE5"/>
  <text x="60" y="245" font-family="Arial, sans-serif" font-size="12" font-weight="bold" fill="#047857">99.9% Uptime</text>
  
  <!-- Processing volume indicator -->
  <rect x="280" y="250" width="100" height="25" rx="12" fill="#FEF3C7"/>
  <text x="290" y="265" font-family="Arial, sans-serif" font-size="12" font-weight="bold" fill="#B45309">10K+ Daily Trades</text>
  
  <!-- Security lock icon -->
  <rect x="170" y="260" width="20" height="15" rx="3" fill="#6B7280"/>
  <circle cx="180" cy="257" r="4" fill="none" stroke="#6B7280" stroke-width="2"/>
  
  <!-- Decorative elements -->
  <circle cx="70" cy="50" r="6" fill="#F472B6" opacity="0.6"/>
  <circle cx="330" cy="320" r="10" fill="#A78BFA" opacity="0.4"/>
  <rect x="350" y="280" width="25" height="25" rx="4" fill="#FDE68A" opacity="0.5"/>
</svg>