<svg width="320" height="240" viewBox="0 0 320 240" fill="none" xmlns="http://www.w3.org/2000/svg">
  <rect width="320" height="240" fill="#F8FAFC"/>
  
  <!-- Dashboard header -->
  <rect x="20" y="20" width="280" height="35" rx="6" fill="#1F2937"/>
  <text x="30" y="40" font-family="Arial, sans-serif" font-size="12" font-weight="bold" fill="#FFFFFF">Trading Platform Dashboard</text>
  
  <!-- Client status indicators -->
  <rect x="20" y="65" width="65" height="40" rx="4" fill="#FEF3C7"/>
  <text x="25" y="77" font-family="Arial, sans-serif" font-size="8" fill="#92400E">Goldman Sachs</text>
  <circle cx="30" cy="85" r="3" fill="#10B981"/>
  <text x="38" y="89" font-family="Arial, sans-serif" font-size="10" font-weight="bold" fill="#047857">Active</text>
  
  <rect x="95" y="65" width="65" height="40" rx="4" fill="#E0E7FF"/>
  <text x="100" y="77" font-family="Arial, sans-serif" font-size="8" fill="#3730A3">Merrill Lynch</text>
  <circle cx="105" cy="85" r="3" fill="#10B981"/>
  <text x="113" y="89" font-family="Arial, sans-serif" font-size="10" font-weight="bold" fill="#047857">Active</text>
  
  <rect x="170" y="65" width="65" height="40" rx="4" fill="#F3E8FF"/>
  <text x="175" y="77" font-family="Arial, sans-serif" font-size="8" fill="#581C87">Credit Suisse</text>
  <circle cx="180" cy="85" r="3" fill="#10B981"/>
  <text x="188" y="89" font-family="Arial, sans-serif" font-size="10" font-weight="bold" fill="#047857">Active</text>
  
  <rect x="245" y="65" width="55" height="40" rx="4" fill="#FEE2E2"/>
  <text x="250" y="77" font-family="Arial, sans-serif" font-size="8" fill="#7F1D1D">Nomura</text>
  <circle cx="255" cy="85" r="3" fill="#10B981"/>
  <text x="263" y="89" font-family="Arial, sans-serif" font-size="10" font-weight="bold" fill="#047857">Active</text>
  
  <!-- Real-time trading data -->
  <rect x="20" y="115" width="280" height="60" rx="4" fill="#FFFFFF" stroke="#E5E7EB"/>
  <text x="25" y="130" font-family="Arial, sans-serif" font-size="10" font-weight="bold" fill="#1F2937">Live Trading Data</text>
  
  <!-- Trading rows -->
  <rect x="25" y="135" width="270" height="8" fill="#F0FDF4"/>
  <text x="30" y="142" font-family="Arial, sans-serif" font-size="8" fill="#166534">NSE: DERIVATIVES +2.5%</text>
  <text x="250" y="142" font-family="Arial, sans-serif" font-size="8" font-weight="bold" fill="#15803D">₹1.2M</text>
  
  <rect x="25" y="145" width="270" height="8" fill="#FEF2F2"/>
  <text x="30" y="152" font-family="Arial, sans-serif" font-size="8" fill="#991B1B">BSE: OPTIONS -1.1%</text>
  <text x="250" y="152" font-family="Arial, sans-serif" font-size="8" font-weight="bold" fill="#DC2626">₹0.8M</text>
  
  <rect x="25" y="155" width="270" height="8" fill="#F0F9FF"/>
  <text x="30" y="162" font-family="Arial, sans-serif" font-size="8" fill="#0C4A6E">FUTURES: EQUITY +0.8%</text>
  <text x="250" y="162" font-family="Arial, sans-serif" font-size="8" font-weight="bold" fill="#0284C7">₹2.1M</text>
  
  <!-- Risk monitoring section -->
  <rect x="20" y="185" width="135" height="40" rx="4" fill="#FFFBEB"/>
  <text x="25" y="197" font-family="Arial, sans-serif" font-size="9" font-weight="bold" fill="#92400E">Risk Monitor</text>
  <text x="25" y="208" font-family="Arial, sans-serif" font-size="8" fill="#92400E">Real-time alerts: 0</text>
  <text x="25" y="218" font-family="Arial, sans-serif" font-size="8" fill="#92400E">Risk threshold: Normal</text>
  
  <!-- Performance metrics -->
  <rect x="165" y="185" width="135" height="40" rx="4" fill="#F0FDF4"/>
  <text x="170" y="197" font-family="Arial, sans-serif" font-size="9" font-weight="bold" fill="#166534">Performance</text>
  <text x="170" y="208" font-family="Arial, sans-serif" font-size="8" fill="#166534">Uptime: 99.9%</text>
  <text x="170" y="218" font-family="Arial, sans-serif" font-size="8" fill="#166534">Processing: 10K+/day</text>
  
  <!-- Status indicators -->
  <circle cx="280" cy="35" r="4" fill="#10B981"/>
  <circle cx="290" cy="35" r="4" fill="#F59E0B"/>
  <circle cx="300" cy="35" r="4" fill="#EF4444"/>
</svg>