<svg viewBox="0 0 400 300" xmlns="http://www.w3.org/2000/svg">
  <!-- Background -->
  <rect width="400" height="300" fill="#FEF7FF"/>
  
  <!-- Community Characters -->
  <circle cx="80" cy="80" r="15" fill="#FF6B6B"/>
  <circle cx="76" cy="75" r="2" fill="#FFFFFF"/>
  <circle cx="84" cy="75" r="2" fill="#FFFFFF"/>
  <ellipse cx="80" cy="88" rx="6" ry="3" fill="#FFFFFF"/>
  
  <circle cx="120" cy="60" r="15" fill="#4ECDC4"/>
  <circle cx="116" cy="55" r="2" fill="#FFFFFF"/>
  <circle cx="124" cy="55" r="2" fill="#FFFFFF"/>
  <ellipse cx="120" cy="68" rx="6" ry="3" fill="#FFFFFF"/>
  
  <circle cx="160" cy="80" r="15" fill="#FFE66D"/>
  <circle cx="156" cy="75" r="2" fill="#333"/>
  <circle cx="164" cy="75" r="2" fill="#333"/>
  <ellipse cx="160" cy="88" rx="6" ry="3" fill="#333"/>
  
  <circle cx="200" cy="60" r="15" fill="#A8E6CF"/>
  <circle cx="196" cy="55" r="2" fill="#333"/>
  <circle cx="204" cy="55" r="2" fill="#333"/>
  <ellipse cx="200" cy="68" rx="6" ry="3" fill="#333"/>
  
  <!-- Content Creation -->
  <rect x="60" y="110" width="80" height="50" fill="#FFFFFF" stroke="#E0E0E0" stroke-width="2" rx="6"/>
  <rect x="70" y="125" width="15" height="10" fill="#FF6B6B" rx="2"/>
  <rect x="90" y="125" width="15" height="10" fill="#4ECDC4" rx="2"/>
  <rect x="110" y="125" width="15" height="10" fill="#FFE66D" rx="2"/>
  <rect x="70" y="140" width="20" height="5" fill="#E0E0E0" rx="2"/>
  <rect x="95" y="140" width="25" height="5" fill="#E0E0E0" rx="2"/>
  
  <!-- Content Flow Arrow -->
  <path d="M150 135 L180 135" stroke="#6C63FF" stroke-width="3" marker-end="url(#arrow)"/>
  
  <!-- Monetization Platform -->
  <rect x="190" y="110" width="100" height="50" fill="#6C63FF" rx="6"/>
  <circle cx="220" cy="125" r="6" fill="#FFFFFF"/>
  <text x="216" y="129" font-family="Arial" font-size="8" fill="#6C63FF" font-weight="bold">$</text>
  <circle cx="250" cy="125" r="6" fill="#FFFFFF"/>
  <circle cx="250" cy="125" r="3" fill="#4ECDC4"/>
  <rect x="200" y="140" width="30" height="8" fill="#FFE66D" rx="4"/>
  <rect x="235" y="140" width="35" height="8" fill="#A8E6CF" rx="4"/>
  
  <!-- Revenue Display -->
  <rect x="310" y="100" width="70" height="25" fill="#FF6B6B" rx="12"/>
  <text x="325" y="116" font-family="Arial" font-size="12" fill="#FFFFFF" font-weight="bold">$760K+</text>
  
  <!-- User Engagement Growth -->
  <rect x="300" y="140" width="80" height="60" fill="#FFFFFF" stroke="#E0E0E0" stroke-width="2" rx="6"/>
  <rect x="310" y="155" width="5" height="20" fill="#FF6B6B"/>
  <rect x="320" y="150" width="5" height="25" fill="#4ECDC4"/>
  <rect x="330" y="145" width="5" height="30" fill="#FFE66D"/>
  <rect x="340" y="140" width="5" height="35" fill="#A8E6CF"/>
  <rect x="350" y="135" width="5" height="40" fill="#6C63FF"/>
  <text x="315" y="190" font-family="Arial" font-size="8" fill="#333">7x Growth</text>
  
  <!-- Content Moderation -->
  <circle cx="100" cy="200" r="20" fill="#4ECDC4" opacity="0.3"/>
  <circle cx="100" cy="200" r="15" fill="#4ECDC4"/>
  <circle cx="96" cy="196" r="2" fill="#FFFFFF"/>
  <circle cx="104" cy="196" r="2" fill="#FFFFFF"/>
  <ellipse cx="100" cy="208" rx="6" ry="3" fill="#FFFFFF"/>
  <text x="85" y="235" font-family="Arial" font-size="8" fill="#333">AI Moderation</text>
  
  <!-- Brand Integration -->
  <rect x="160" y="190" width="25" height="15" fill="#FF6B6B" rx="3"/>
  <text x="166" y="200" font-family="Arial" font-size="7" fill="#FFFFFF" font-weight="bold">VG</text>
  
  <rect x="190" y="190" width="25" height="15" fill="#6C63FF" rx="3"/>
  <text x="196" y="200" font-family="Arial" font-size="7" fill="#FFFFFF" font-weight="bold">WD</text>
  
  <rect x="220" y="190" width="25" height="15" fill="#4ECDC4" rx="3"/>
  <text x="226" y="200" font-family="Arial" font-size="7" fill="#FFFFFF" font-weight="bold">BA</text>
  
  <!-- Performance Metrics -->
  <rect x="270" y="220" width="50" height="15" fill="#4ECDC4" rx="7"/>
  <text x="283" y="230" font-family="Arial" font-size="8" fill="#FFFFFF" font-weight="bold">99.2%</text>
  
  <rect x="330" y="220" width="50" height="15" fill="#FFE66D" rx="7"/>
  <text x="342" y="230" font-family="Arial" font-size="8" fill="#333" font-weight="bold">30M+</text>
  
  <!-- Content Creator Tools -->
  <rect x="40" y="180" width="40" height="30" fill="#FFE66D" rx="4"/>
  <circle cx="50" cy="190" r="3" fill="#333"/>
  <rect x="45" y="200" width="10" height="5" fill="#333" rx="2"/>
  <circle cx="70" cy="190" r="3" fill="#333"/>
  <rect x="65" y="200" width="10" height="5" fill="#333" rx="2"/>
  
  <!-- Monetization Flow -->
  <g stroke="#6C63FF" stroke-width="2" opacity="0.6" stroke-dasharray="3,2">
    <path d="M140 160 L190 140"/>
    <path d="M240 160 L280 180"/>
    <path d="M120 200 L160 200"/>
  </g>
  
  <!-- Revenue Streams -->
  <circle cx="50" cy="250" r="8" fill="#FF6B6B"/>
  <text x="46" y="254" font-family="Arial" font-size="8" fill="#FFFFFF" font-weight="bold">$</text>
  <text x="25" y="270" font-family="Arial" font-size="7" fill="#333">Sponsorship</text>
  
  <circle cx="120" cy="250" r="8" fill="#4ECDC4"/>
  <text x="116" y="254" font-family="Arial" font-size="8" fill="#FFFFFF" font-weight="bold">%</text>
  <text x="105" y="270" font-family="Arial" font-size="7" fill="#333">Affiliate</text>
  
  <circle cx="190" cy="250" r="8" fill="#FFE66D"/>
  <text x="186" y="254" font-family="Arial" font-size="8" fill="#333" font-weight="bold">★</text>
  <text x="175" y="270" font-family="Arial" font-size="7" fill="#333">Premium</text>
  
  <!-- Community Size -->
  <text x="320" y="270" font-family="Arial" font-size="10" fill="#6C63FF" font-weight="bold">30M+ Users</text>
  
  <!-- Decorative Elements -->
  <circle cx="40" cy="40" r="6" fill="#FF6B6B" opacity="0.7"/>
  <circle cx="360" cy="50" r="8" fill="#4ECDC4" opacity="0.7"/>
  <circle cx="30" cy="280" r="5" fill="#FFE66D" opacity="0.7"/>
  <circle cx="370" cy="270" r="6" fill="#A8E6CF" opacity="0.7"/>
  
  <!-- Platform Connection Lines -->
  <g stroke="#E0E0E0" stroke-width="1" opacity="0.5">
    <line x1="80" y1="95" x2="100" y2="115"/>
    <line x1="120" y1="75" x2="140" y2="125"/>
    <line x1="160" y1="95" x2="180" y2="125"/>
    <line x1="200" y1="75" x2="210" y2="115"/>
  </g>
  
  <!-- Arrow Marker -->
  <defs>
    <marker id="arrow" markerWidth="8" markerHeight="8" refX="7" refY="2" orient="auto" markerUnits="strokeWidth">
      <path d="M0,0 L0,4 L6,2 z" fill="#6C63FF"/>
    </marker>
  </defs>
</svg>