<svg width="320" height="240" viewBox="0 0 320 240" fill="none" xmlns="http://www.w3.org/2000/svg">
  <rect width="320" height="240" fill="#F8FAFC"/>
  
  <!-- Analytics Dashboard Header -->
  <rect x="20" y="20" width="280" height="30" rx="6" fill="#FFFFFF" stroke="#E2E8F0"/>
  <text x="30" y="38" font-family="Arial, sans-serif" font-size="12" font-weight="bold" fill="#1E293B">Content Discovery Analytics</text>
  
  <!-- Brand performance cards -->
  <rect x="20" y="60" width="50" height="40" rx="4" fill="#FEE2E2"/>
  <text x="25" y="72" font-family="Arial, sans-serif" font-size="8" fill="#7F1D1D">Vogue</text>
  <text x="25" y="85" font-family="Arial, sans-serif" font-size="12" font-weight="bold" fill="#DC2626">2.1M</text>
  <text x="25" y="95" font-family="Arial, sans-serif" font-size="7" fill="#7F1D1D">searches</text>
  
  <rect x="80" y="60" width="50" height="40" rx="4" fill="#F3E8FF"/>
  <text x="85" y="72" font-family="Arial, sans-serif" font-size="8" fill="#581C87">Wired</text>
  <text x="85" y="85" font-family="Arial, sans-serif" font-size="12" font-weight="bold" fill="#7C3AED">1.8M</text>
  <text x="85" y="95" font-family="Arial, sans-serif" font-size="7" fill="#581C87">searches</text>
  
  <rect x="140" y="60" width="50" height="40" rx="4" fill="#D1FAE5"/>
  <text x="145" y="72" font-family="Arial, sans-serif" font-size="8" fill="#065F46">Bon App</text>
  <text x="145" y="85" font-family="Arial, sans-serif" font-size="12" font-weight="bold" fill="#047857">1.5M</text>
  <text x="145" y="95" font-family="Arial, sans-serif" font-size="7" fill="#065F46">searches</text>
  
  <rect x="200" y="60" width="50" height="40" rx="4" fill="#FEF3C7"/>
  <text x="205" y="72" font-family="Arial, sans-serif" font-size="8" fill="#92400E">AD</text>
  <text x="205" y="85" font-family="Arial, sans-serif" font-size="12" font-weight="bold" fill="#B45309">1.2M</text>
  <text x="205" y="95" font-family="Arial, sans-serif" font-size="7" fill="#92400E">searches</text>
  
  <rect x="260" y="60" width="40" height="40" rx="4" fill="#FFEDD5"/>
  <text x="265" y="72" font-family="Arial, sans-serif" font-size="8" fill="#9A3412">Epic</text>
  <text x="265" y="85" font-family="Arial, sans-serif" font-size="12" font-weight="bold" fill="#C2410C">0.9M</text>
  <text x="265" y="95" font-family="Arial, sans-serif" font-size="7" fill="#9A3412">searches</text>
  
  <!-- Search trends chart -->
  <rect x="20" y="110" width="280" height="80" rx="4" fill="#FFFFFF" stroke="#E5E7EB"/>
  <text x="25" y="125" font-family="Arial, sans-serif" font-size="9" font-weight="bold" fill="#1F2937">Search Performance Trends</text>
  
  <!-- Chart lines -->
  <path d="M30 160 L50 155 L70 150 L90 145 L110 140 L130 135 L150 130" stroke="#DC2626" stroke-width="2" fill="none"/>
  <path d="M30 170 L50 165 L70 162 L90 158 L110 155 L130 150 L150 145" stroke="#7C3AED" stroke-width="2" fill="none"/>
  <path d="M30 175 L50 172 L70 170 L90 165 L110 162 L130 158 L150 155" stroke="#047857" stroke-width="2" fill="none"/>
  
  <!-- Chart area for mobile optimization -->
  <rect x="160" y="135" width="130" height="50" rx="3" fill="#F9FAFB" stroke="#E5E7EB"/>
  <text x="165" y="147" font-family="Arial, sans-serif" font-size="8" font-weight="bold" fill="#374151">Mobile Search</text>
  <text x="165" y="157" font-family="Arial, sans-serif" font-size="7" fill="#6B7280">70% of traffic</text>
  
  <!-- Mobile device illustration -->
  <rect x="240" y="145" width="20" height="30" rx="3" fill="#1F2937"/>
  <rect x="243" y="150" width="14" height="20" rx="1" fill="#FFFFFF"/>
  <rect x="245" y="153" width="10" height="2" rx="1" fill="#3B82F6"/>
  <rect x="245" y="157" width="6" height="1" rx="0.5" fill="#EF4444"/>
  <rect x="245" y="160" width="10" height="3" rx="1" fill="#F59E0B"/>
  
  <!-- Key metrics section -->
  <rect x="20" y="200" width="90" height="25" rx="4" fill="#EFF6FF"/>
  <text x="25" y="212" font-family="Arial, sans-serif" font-size="8" font-weight="bold" fill="#1E40AF">Relevance +40%</text>
  <text x="25" y="220" font-family="Arial, sans-serif" font-size="7" fill="#3730A3">improvement</text>
  
  <rect x="120" y="200" width="90" height="25" rx="4" fill="#F0FDF4"/>
  <text x="125" y="212" font-family="Arial, sans-serif" font-size="8" font-weight="bold" fill="#166534">Editorial Adoption</text>
  <text x="125" y="220" font-family="Arial, sans-serif" font-size="7" fill="#15803D">95% team usage</text>
  
  <rect x="220" y="200" width="80" height="25" rx="4" fill="#FDF2F8"/>
  <text x="225" y="212" font-family="Arial, sans-serif" font-size="8" font-weight="bold" fill="#9D174D">Cross-Brand</text>
  <text x="225" y="220" font-family="Arial, sans-serif" font-size="7" fill="#BE185D">unified experience</text>
  
  <!-- Search analytics icons -->
  <circle cx="280" cy="125" r="6" fill="#3B82F6"/>
  <path d="M276 121 L284 129 M284 121 L276 129" stroke="#FFFFFF" stroke-width="1"/>
</svg>