<svg width="400" height="359" viewBox="0 0 400 359" fill="none" xmlns="http://www.w3.org/2000/svg">
  <rect width="400" height="359" fill="#F8FAFC"/>
  
  <!-- Background elements -->
  <circle cx="350" cy="80" r="30" fill="#E2E8F0" opacity="0.5"/>
  <rect x="20" y="280" width="40" height="40" rx="8" fill="#CBD5E1" opacity="0.3"/>
  
  <!-- Restaurant building -->
  <rect x="50" y="120" width="120" height="80" rx="4" fill="#EF4444"/>
  <rect x="60" y="140" width="20" height="25" rx="2" fill="#FFFFFF"/>
  <rect x="90" y="140" width="20" height="25" rx="2" fill="#FFFFFF"/>
  <rect x="120" y="140" width="20" height="25" rx="2" fill="#FFFFFF"/>
  <rect x="75" y="175" width="30" height="25" rx="15" fill="#92400E"/>
  
  <!-- Mobile phone with ordering interface -->
  <rect x="220" y="100" width="80" height="120" rx="12" fill="#1E293B"/>
  <rect x="230" y="115" width="60" height="90" rx="4" fill="#FFFFFF"/>
  
  <!-- Phone screen content -->
  <rect x="235" y="125" width="50" height="8" rx="4" fill="#3B82F6"/>
  <rect x="235" y="140" width="25" height="6" rx="3" fill="#EF4444"/>
  <rect x="265" y="140" width="20" height="6" rx="3" fill="#10B981"/>
  <rect x="235" y="155" width="50" height="12" rx="6" fill="#F59E0B"/>
  <rect x="235" y="175" width="30" height="8" rx="4" fill="#8B5CF6"/>
  
  <!-- Person using phone -->
  <circle cx="180" cy="160" r="15" fill="#F3E8FF"/>
  <rect x="170" y="175" width="20" height="30" rx="10" fill="#3B82F6"/>
  <rect x="162" y="185" width="8" height="15" rx="4" fill="#FBBF24"/>
  
  <!-- Growth arrow -->
  <path d="M320 200 L360 160 L350 170 L370 150 L380 160 L360 180 L370 170 L320 210 Z" fill="#10B981"/>
  
  <!-- Revenue chart bars -->
  <rect x="320" y="220" width="8" height="20" fill="#3B82F6"/>
  <rect x="332" y="210" width="8" height="30" fill="#10B981"/>
  <rect x="344" y="200" width="8" height="40" fill="#F59E0B"/>
  <rect x="356" y="190" width="8" height="50" fill="#EF4444"/>
  
  <!-- Dollar signs -->
  <text x="300" y="280" font-family="Arial, sans-serif" font-size="20" font-weight="bold" fill="#059669">$360K</text>
  
  <!-- Decorative elements -->
  <circle cx="60" cy="60" r="8" fill="#F472B6" opacity="0.6"/>
  <circle cx="350" cy="300" r="12" fill="#A78BFA" opacity="0.4"/>
  
  <!-- Cart icon -->
  <rect x="150" y="250" width="30" height="20" rx="3" fill="#6B7280"/>
  <circle cx="155" cy="275" r="3" fill="#6B7280"/>
  <circle cx="175" cy="275" r="3" fill="#6B7280"/>
</svg>